<svg width="408" height="323" viewBox="0 0 408 323" fill="none" xmlns="http://www.w3.org/2000/svg">
<circle cx="98.2217" cy="118.052" r="97.9668" fill="white"/>
<circle cx="246.731" cy="161.75" r="161.015" fill="white"/>
<circle cx="71.0378" cy="221.541" r="63.6462" fill="white"/>
<path d="M146.322 149.082C147.592 151.523 147.592 154.395 146.322 156.836C145.15 159.238 142.846 161.152 139.955 162.168C138.49 162.676 136.947 162.93 135.326 162.93H122.963V169.238C122.963 169.648 122.553 170 122.084 170H114.154C113.627 170 113.236 169.648 113.236 169.238V143.711C113.236 143.34 113.627 143.008 114.154 143.008H135.326C136.947 143.008 138.49 143.262 139.955 143.77C142.846 144.785 145.15 146.68 146.322 149.082ZM133.275 156.445C134.428 156.445 135.404 156.113 136.225 155.449C137.064 154.766 137.494 153.965 137.514 153.047C137.533 152.051 137.143 151.211 136.322 150.527C135.502 149.824 134.506 149.473 133.354 149.473H123.412C123.119 149.473 122.963 149.59 122.963 149.844V156.074C122.963 156.309 123.119 156.426 123.412 156.445H133.275ZM188.521 163.125C187.096 166.27 184.303 168.379 180.689 169.414C178.873 169.941 177.037 170.293 175.182 170.488C173.326 170.703 171.275 170.781 169.01 170.762C164.537 170.82 160.943 170.43 157.33 169.355C153.717 168.281 150.943 166.113 149.459 163.047C148.58 161.289 148.131 159.121 148.131 156.523C148.131 153.926 148.58 151.758 149.459 150C150.943 146.895 153.717 144.746 157.33 143.672C159.146 143.145 160.963 142.773 162.818 142.559C164.674 142.344 166.744 142.266 169.01 142.285C171.256 142.266 173.307 142.344 175.162 142.559C177.037 142.773 178.873 143.145 180.67 143.672C184.264 144.746 187.096 146.895 188.521 150C189.439 151.777 189.889 153.984 189.869 156.602C189.85 159.219 189.4 161.387 188.521 163.125ZM179.127 152.93C178.521 151.602 177.428 150.566 175.865 149.824C174.303 149.082 172.018 148.711 169.01 148.711C163.541 148.711 160.162 150.117 158.893 152.93C158.463 153.75 158.248 154.941 158.248 156.523C158.248 158.105 158.463 159.297 158.893 160.117C160.162 162.91 163.541 164.316 169.01 164.316C172.018 164.316 174.303 163.965 175.885 163.262C177.467 162.559 178.541 161.543 179.127 160.234C179.557 159.414 179.771 158.203 179.771 156.621C179.771 155.02 179.557 153.789 179.127 152.93ZM228.729 151.641H220.486C220.018 151.641 219.627 151.328 219.568 150.957C219.549 150.449 219.334 150.059 218.963 149.766C218.514 149.395 217.771 149.102 216.775 148.926C215.447 148.691 213.377 148.574 210.564 148.555H210.135C207.361 148.574 205.311 148.711 204.002 148.965C202.42 149.336 201.229 150 201.443 151.23C201.541 151.836 201.971 152.246 202.752 152.422C203.143 152.52 203.455 152.578 203.689 152.617L204.725 152.754L210.486 153.047C212.654 153.066 214.451 153.125 215.896 153.223C217.361 153.32 218.826 153.477 220.311 153.691C221.795 153.906 223.025 154.18 224.002 154.551C225.975 155.254 227.693 156.406 228.768 158.125C229.334 159.043 229.607 160.176 229.607 161.523C229.607 162.871 229.334 164.082 228.807 165.117C228.045 166.582 226.756 167.754 224.939 168.633C222.068 170.02 217.283 170.703 210.604 170.723H210.408C203.611 170.723 198.826 170.059 196.053 168.711C194.236 167.832 192.947 166.641 192.166 165.156C191.756 164.414 191.502 163.594 191.404 162.676C191.404 162.578 191.385 162.344 191.365 161.992C191.365 161.582 191.756 161.23 192.283 161.23H200.564C200.975 161.23 201.385 161.543 201.443 161.914C201.502 162.441 201.697 162.852 202.049 163.125C202.498 163.496 203.221 163.789 204.217 163.965C205.545 164.199 207.615 164.316 210.447 164.316H210.604C213.318 164.316 215.35 164.199 216.658 163.965C218.67 163.594 219.627 162.832 219.529 161.719C219.471 161.074 219.08 160.664 218.318 160.449C217.596 160.215 217.205 160.137 216.287 160.078L210.486 159.805C208.318 159.746 206.521 159.688 205.057 159.609C203.611 159.512 202.146 159.375 200.662 159.16C199.197 158.945 197.967 158.672 196.971 158.301C194.998 157.578 193.279 156.367 192.205 154.727C191.639 153.809 191.365 152.676 191.365 151.309C191.365 149.922 191.639 148.73 192.166 147.715C192.928 146.25 194.236 145.078 196.053 144.199C198.846 142.852 203.631 142.168 210.408 142.168H210.604C217.4 142.168 222.186 142.852 224.979 144.199C226.795 145.078 228.084 146.25 228.846 147.715C229.295 148.535 229.568 149.453 229.646 150.488C229.646 150.586 229.744 151.113 229.373 151.426C229.197 151.562 228.982 151.641 228.729 151.641ZM266.006 143.711V148.711C266.006 149.121 265.557 149.473 265.088 149.473H253.486C253.154 149.473 252.998 149.59 252.998 149.844V169.238C252.998 169.648 252.607 170 252.119 170H244.209C243.682 170 243.271 169.648 243.271 169.238V149.844C243.271 149.609 243.135 149.492 242.842 149.473H231.24C230.713 149.473 230.322 149.16 230.322 148.711V143.711C230.322 143.34 230.713 143.008 231.24 143.008H265.088C265.557 143.008 266.006 143.34 266.006 143.711ZM277.229 169.238C277.229 169.648 276.877 170 276.467 170H268.264C267.854 170 267.502 169.648 267.502 169.238V143.711C267.502 143.34 267.854 143.008 268.264 143.008H276.467C276.877 143.008 277.229 143.34 277.229 143.711V169.238ZM315.307 143.008C315.717 143.008 315.99 143.164 316.146 143.477C316.303 143.77 316.225 144.043 315.893 144.277L302.611 154.648C302.436 154.824 302.436 155 302.611 155.156L316.459 168.77C316.693 169.004 316.732 169.277 316.576 169.57C316.42 169.863 316.146 170 315.775 170H305.385C305.092 170 304.857 169.902 304.701 169.727L295.541 160.762C295.326 160.547 295.111 160.547 294.857 160.723L291.225 163.555C291.146 163.633 291.107 163.73 291.107 163.848V169.238C291.107 169.648 290.697 170 290.229 170H286.225H282.26C281.791 170 281.381 169.648 281.381 169.238L281.342 143.711C281.342 143.34 281.752 143.008 282.221 143.008H286.225H290.189C290.658 143.008 291.068 143.34 291.068 143.711V151.719C291.068 152.031 291.537 152.227 291.83 151.992L303.1 143.203C303.256 143.066 303.451 143.008 303.705 143.008H315.307Z" fill="black"/>
</svg>
