<svg width="14" height="14" viewBox="0 0 14 14" fill="none" xmlns="http://www.w3.org/2000/svg">
<path d="M5.27575 6.41672L7.5833 8.72427M4.64957 12.3739C3.81468 13.2088 2.22165 13 1 13C1.62615 11.7784 0.79126 10.1853 1.62615 9.35044C2.46105 8.51555 3.81468 8.51555 4.64957 9.35044C5.48447 10.1853 5.48447 11.539 4.64957 12.3739ZM7.06034 9.28905L12.6415 3.2614C13.1331 2.7305 13.1172 1.90602 12.6056 1.3944C12.094 0.882775 11.2695 0.866925 10.7386 1.3585L4.71095 6.93966C4.39947 7.22806 4.24373 7.37227 4.1529 7.52606C3.93509 7.89486 3.92633 8.35078 4.1298 8.72767C4.21466 8.88485 4.36474 9.03493 4.66491 9.33509C4.96507 9.63526 5.11515 9.78534 5.27233 9.8702C5.64922 10.0737 6.10514 10.0649 6.47394 9.8471C6.62773 9.75627 6.77194 9.60053 7.06034 9.28905Z" stroke="white" stroke-linecap="round" stroke-linejoin="round"/>
</svg>
