<svg width="14" height="14" viewBox="0 0 14 14" fill="none" xmlns="http://www.w3.org/2000/svg">
<path d="M3.61094 3.70713L6.31094 6.40713M3.61094 3.70713H1.81094L1.21094 1.90713L1.81094 1.30713L3.61094 1.90713V3.70713ZM11.5663 1.75174L9.98976 3.32831C9.75215 3.56592 9.63334 3.68472 9.58883 3.82172C9.54968 3.94222 9.54968 4.07203 9.58883 4.19254C9.63334 4.32954 9.75215 4.44834 9.98976 4.68595L10.1321 4.82831C10.3697 5.06592 10.4885 5.18472 10.6255 5.22923C10.746 5.26839 10.8758 5.26839 10.9963 5.22923C11.1333 5.18472 11.2522 5.06592 11.4898 4.82831L12.9645 3.35356C13.1233 3.74006 13.2109 4.16337 13.2109 4.60713C13.2109 6.42967 11.7335 7.90713 9.91094 7.90713C9.69121 7.90713 9.4765 7.88565 9.26879 7.84469C8.97711 7.78716 8.83126 7.7584 8.74285 7.76721C8.64885 7.77658 8.60253 7.79067 8.51924 7.83524C8.4409 7.87716 8.36232 7.95574 8.20515 8.11291L3.91094 12.4071C3.41388 12.9042 2.60799 12.9042 2.11094 12.4071C1.61388 11.9101 1.61388 11.1042 2.11094 10.6071L6.40515 6.31291C6.56232 6.15574 6.6409 6.07716 6.68283 5.99882C6.7274 5.91554 6.74149 5.86921 6.75086 5.77522C6.75967 5.6868 6.7309 5.54096 6.67338 5.24927C6.63241 5.04156 6.61094 4.82685 6.61094 4.60713C6.61094 2.78459 8.0884 1.30713 9.91094 1.30713C10.5142 1.30713 11.0797 1.46902 11.5663 1.75174ZM7.21097 9.1071L10.5109 12.4071C11.008 12.9041 11.8139 12.9041 12.3109 12.4071C12.808 11.91 12.808 11.1041 12.3109 10.6071L9.59613 7.89231C9.40394 7.87412 9.21656 7.83945 9.03541 7.78973C8.80197 7.72566 8.5459 7.77216 8.37473 7.94333L7.21097 9.1071Z" stroke="white" stroke-linecap="round" stroke-linejoin="round"/>
</svg>
