<svg width="14" height="14" viewBox="0 0 14 14" fill="none" xmlns="http://www.w3.org/2000/svg">
<path d="M3.21094 10.3988C3.21094 10.633 3.21094 10.7501 3.22138 10.8519C3.3081 11.6971 3.91934 12.3952 4.74564 12.5929C4.84517 12.6167 4.96127 12.6322 5.19339 12.6631L9.58801 13.2491C10.839 13.4159 11.4644 13.4993 11.9499 13.3063C12.3761 13.1368 12.7311 12.826 12.9554 12.4259C13.2109 11.9702 13.2109 11.3392 13.2109 10.0772V4.0538C13.2109 2.79178 13.2109 2.16076 12.9554 1.70508C12.7311 1.305 12.3761 0.994181 11.9499 0.82471C11.4644 0.631684 10.839 0.715081 9.58801 0.881875L5.19339 1.46782C4.96124 1.49878 4.84517 1.51425 4.74564 1.53806C3.91934 1.73572 3.3081 2.43387 3.22138 3.27905C3.21094 3.38085 3.21094 3.49795 3.21094 3.73215M7.21094 4.39882L9.8776 7.06549M9.8776 7.06549L7.21094 9.73215M9.8776 7.06549H1.21094" stroke="white" stroke-linecap="round" stroke-linejoin="round"/>
</svg>
