<svg width="14" height="12" viewBox="0 0 14 12" fill="none" xmlns="http://www.w3.org/2000/svg">
<path d="M6.37826 6.04385H2.89271M2.83906 6.22858L1.35934 10.6487C1.24309 10.996 1.18497 11.1696 1.22668 11.2765C1.2629 11.3693 1.3407 11.4397 1.4367 11.4665C1.54725 11.4974 1.71422 11.4223 2.04815 11.272L12.6388 6.50619C12.9648 6.35951 13.1277 6.28617 13.1781 6.18429C13.2219 6.09578 13.2219 5.99192 13.1781 5.90341C13.1277 5.80153 12.9648 5.72819 12.6388 5.58152L2.04446 0.814081C1.71153 0.664263 1.54507 0.589354 1.43463 0.620083C1.33872 0.646769 1.26093 0.716978 1.22458 0.809658C1.18273 0.916376 1.24023 1.08962 1.35524 1.43612L2.83948 5.90793C2.85923 5.96744 2.86911 5.9972 2.873 6.02763C2.87646 6.05464 2.87643 6.08197 2.8729 6.10897C2.86892 6.13939 2.85897 6.16912 2.83906 6.22858Z" stroke="white" stroke-linecap="round" stroke-linejoin="round"/>
</svg>
