<svg width="14" height="14" viewBox="0 0 14 14" fill="none" xmlns="http://www.w3.org/2000/svg">
<path d="M7.46094 8.86543C8.45505 8.86543 9.26094 8.05954 9.26094 7.06543C9.26094 6.07132 8.45505 5.26543 7.46094 5.26543C6.46683 5.26543 5.66094 6.07132 5.66094 7.06543C5.66094 8.05954 6.46683 8.86543 7.46094 8.86543Z" stroke="white" stroke-linecap="round" stroke-linejoin="round"/>
<path d="M11.4973 8.70179C11.4247 8.86631 11.403 9.04881 11.4351 9.22575C11.4672 9.40269 11.5516 9.56597 11.6773 9.69452L11.71 9.72725C11.8115 9.82856 11.8919 9.94888 11.9468 10.0813C12.0017 10.2137 12.03 10.3557 12.03 10.4991C12.03 10.6424 12.0017 10.7844 11.9468 10.9168C11.8919 11.0493 11.8115 11.1696 11.71 11.2709C11.6087 11.3723 11.4884 11.4528 11.356 11.5077C11.2235 11.5626 11.0816 11.5908 10.9382 11.5908C10.7948 11.5908 10.6529 11.5626 10.5205 11.5077C10.388 11.4528 10.2677 11.3723 10.1664 11.2709L10.1337 11.2382C10.0051 11.1124 9.84184 11.0281 9.6649 10.996C9.48795 10.9639 9.30546 10.9855 9.14094 11.0582C8.97961 11.1273 8.84202 11.2421 8.74511 11.3884C8.64819 11.5348 8.59618 11.7063 8.59548 11.8818V11.9745C8.59548 12.2638 8.48055 12.5413 8.27596 12.7459C8.07138 12.9505 7.7939 13.0654 7.50457 13.0654C7.21525 13.0654 6.93777 12.9505 6.73319 12.7459C6.5286 12.5413 6.41366 12.2638 6.41366 11.9745V11.9254C6.40944 11.7449 6.351 11.5698 6.24594 11.4229C6.14088 11.276 5.99407 11.1641 5.82457 11.1018C5.66006 11.0292 5.47756 11.0075 5.30062 11.0396C5.12367 11.0717 4.9604 11.156 4.83185 11.2818L4.79912 11.3145C4.6978 11.416 4.57749 11.4964 4.44505 11.5513C4.31262 11.6062 4.17066 11.6345 4.0273 11.6345C3.88394 11.6345 3.74198 11.6062 3.60955 11.5513C3.47711 11.4964 3.3568 11.416 3.25548 11.3145C3.15405 11.2132 3.07359 11.0929 3.01869 10.9605C2.96379 10.828 2.93553 10.6861 2.93553 10.5427C2.93553 10.3993 2.96379 10.2574 3.01869 10.125C3.07359 9.99252 3.15405 9.8722 3.25548 9.77088L3.28821 9.73816C3.41396 9.60961 3.49831 9.44633 3.53039 9.26939C3.56248 9.09244 3.54082 8.90995 3.46821 8.74543C3.39907 8.5841 3.28426 8.44651 3.13792 8.3496C2.99158 8.25268 2.82009 8.20068 2.64457 8.19998H2.55185C2.26252 8.19998 1.98504 8.08504 1.78046 7.88046C1.57587 7.67587 1.46094 7.39839 1.46094 7.10907C1.46094 6.81974 1.57587 6.54226 1.78046 6.33768C1.98504 6.13309 2.26252 6.01816 2.55185 6.01816H2.60094C2.78148 6.01393 2.95658 5.95549 3.10346 5.85044C3.25035 5.74538 3.36224 5.59856 3.42457 5.42907C3.49718 5.26455 3.51884 5.08205 3.48676 4.90511C3.45468 4.72817 3.37032 4.56489 3.24457 4.43634L3.21185 4.40361C3.11042 4.3023 3.02995 4.18198 2.97505 4.04955C2.92016 3.91711 2.8919 3.77516 2.8919 3.63179C2.8919 3.48843 2.92016 3.34647 2.97505 3.21404C3.02995 3.08161 3.11042 2.96129 3.21185 2.85998C3.31316 2.75855 3.43348 2.67808 3.56591 2.62318C3.69835 2.56828 3.8403 2.54003 3.98366 2.54003C4.12703 2.54003 4.26898 2.56828 4.40142 2.62318C4.53385 2.67808 4.65417 2.75855 4.75548 2.85998L4.78821 2.8927C4.91676 3.01845 5.08004 3.1028 5.25698 3.13489C5.43392 3.16697 5.61642 3.14531 5.78094 3.0727H5.82457C5.9859 3.00356 6.12349 2.88875 6.22041 2.74241C6.31732 2.59607 6.36933 2.42459 6.37003 2.24907V2.15634C6.37003 1.86701 6.48496 1.58953 6.68955 1.38495C6.89413 1.18036 7.17161 1.06543 7.46094 1.06543C7.75026 1.06543 8.02774 1.18036 8.23233 1.38495C8.43691 1.58953 8.55185 1.86701 8.55185 2.15634V2.20543C8.55255 2.38095 8.60456 2.55243 8.70147 2.69877C8.79838 2.84511 8.93597 2.95992 9.0973 3.02907C9.26182 3.10167 9.44432 3.12333 9.62126 3.09125C9.7982 3.05917 9.96148 2.97481 10.09 2.84907L10.1228 2.81634C10.2241 2.71491 10.3444 2.63445 10.4768 2.57955C10.6093 2.52465 10.7512 2.49639 10.8946 2.49639C11.0379 2.49639 11.1799 2.52465 11.3123 2.57955C11.4448 2.63445 11.5651 2.71491 11.6664 2.81634C11.7678 2.91765 11.8483 3.03797 11.9032 3.1704C11.9581 3.30284 11.9863 3.44479 11.9863 3.58816C11.9863 3.73152 11.9581 3.87348 11.9032 4.00591C11.8483 4.13834 11.7678 4.25866 11.6664 4.35998L11.6337 4.3927C11.5079 4.52125 11.4236 4.68453 11.3915 4.86147C11.3594 5.03842 11.3811 5.22091 11.4537 5.38543V5.42907C11.5228 5.5904 11.6376 5.72798 11.784 5.8249C11.9303 5.92181 12.1018 5.97382 12.2773 5.97452H12.37C12.6594 5.97452 12.9368 6.08946 13.1414 6.29404C13.346 6.49863 13.4609 6.7761 13.4609 7.06543C13.4609 7.35476 13.346 7.63223 13.1414 7.83682C12.9368 8.0414 12.6594 8.15634 12.37 8.15634H12.3209C12.1454 8.15704 11.9739 8.20905 11.8276 8.30596C11.6813 8.40288 11.5664 8.54047 11.4973 8.70179Z" stroke="white" stroke-linecap="round" stroke-linejoin="round"/>
</svg>
