<svg width="204" height="30" viewBox="0 0 204 30" fill="none" xmlns="http://www.w3.org/2000/svg">
<path d="M33.3223 7.42627C34.5918 9.86768 34.5918 12.7388 33.3223 15.1802C32.1504 17.5825 29.8457 19.4966 26.9551 20.5122C25.4902 21.02 23.9473 21.2739 22.3262 21.2739H9.96291V27.5825C9.96291 27.9927 9.55275 28.3442 9.084 28.3442H1.15431C0.626968 28.3442 0.236343 27.9927 0.236343 27.5825V2.05518C0.236343 1.68408 0.626968 1.35205 1.15431 1.35205H22.3262C23.9473 1.35205 25.4902 1.60596 26.9551 2.11377C29.8457 3.12939 32.1504 5.02393 33.3223 7.42627ZM20.2754 14.7896C21.4277 14.7896 22.4043 14.4575 23.2246 13.7935C24.0645 13.1099 24.4942 12.3091 24.5137 11.3911C24.5332 10.395 24.1426 9.55518 23.3223 8.87158C22.502 8.16846 21.5059 7.81689 20.3535 7.81689H10.4121C10.1192 7.81689 9.96291 7.93408 9.96291 8.18799V14.4185C9.96291 14.6528 10.1192 14.77 10.4121 14.7896H20.2754ZM75.5215 21.4692C74.0957 24.6138 71.3027 26.7231 67.6895 27.7583C65.8731 28.2856 64.0371 28.6372 62.1817 28.8325C60.3262 29.0474 58.2754 29.1255 56.0098 29.106C51.5371 29.1646 47.9434 28.7739 44.3301 27.6997C40.7168 26.6255 37.9434 24.4575 36.459 21.3911C35.5801 19.6333 35.1309 17.4653 35.1309 14.8677C35.1309 12.27 35.5801 10.1021 36.459 8.34424C37.9434 5.23877 40.7168 3.09033 44.3301 2.01611C46.1465 1.48877 47.9629 1.11768 49.8184 0.902832C51.6738 0.687988 53.7442 0.609863 56.0098 0.629395C58.2559 0.609863 60.3067 0.687988 62.1621 0.902832C64.0371 1.11768 65.8731 1.48877 67.6699 2.01611C71.2637 3.09033 74.0957 5.23877 75.5215 8.34424C76.4395 10.1216 76.8887 12.3286 76.8692 14.9458C76.8496 17.563 76.4004 19.731 75.5215 21.4692ZM66.127 11.2739C65.5215 9.9458 64.4277 8.91064 62.8652 8.16846C61.3027 7.42627 59.0176 7.05518 56.0098 7.05518C50.541 7.05518 47.1621 8.46143 45.8926 11.2739C45.4629 12.0942 45.2481 13.2856 45.2481 14.8677C45.2481 16.4497 45.4629 17.6411 45.8926 18.4614C47.1621 21.2544 50.541 22.6606 56.0098 22.6606C59.0176 22.6606 61.3027 22.3091 62.8848 21.606C64.4668 20.9028 65.541 19.8872 66.127 18.5786C66.5567 17.7583 66.7715 16.5474 66.7715 14.9653C66.7715 13.3638 66.5567 12.1333 66.127 11.2739ZM115.729 9.98486H107.486C107.018 9.98486 106.627 9.67236 106.568 9.30127C106.549 8.79346 106.334 8.40283 105.963 8.10986C105.514 7.73877 104.771 7.4458 103.775 7.27002C102.447 7.03564 100.377 6.91846 97.5645 6.89893H97.1348C94.3613 6.91846 92.3106 7.05518 91.002 7.30908C89.4199 7.68018 88.2285 8.34424 88.4434 9.57471C88.541 10.1802 88.9707 10.5903 89.752 10.7661C90.1426 10.8638 90.4551 10.9224 90.6895 10.9614L91.7246 11.0981L97.4863 11.3911C99.6543 11.4106 101.451 11.4692 102.896 11.5669C104.361 11.6646 105.826 11.8208 107.311 12.0356C108.795 12.2505 110.025 12.5239 111.002 12.895C112.975 13.5981 114.693 14.7505 115.768 16.4692C116.334 17.3872 116.607 18.52 116.607 19.8677C116.607 21.2153 116.334 22.4263 115.807 23.4614C115.045 24.9263 113.756 26.0981 111.939 26.9771C109.068 28.3638 104.283 29.0474 97.6035 29.0669H97.4082C90.6113 29.0669 85.8262 28.4028 83.0527 27.0552C81.2363 26.1763 79.9473 24.9849 79.166 23.5005C78.7559 22.7583 78.502 21.938 78.4043 21.02C78.4043 20.9224 78.3848 20.688 78.3652 20.3364C78.3652 19.9263 78.7559 19.5747 79.2832 19.5747H87.5645C87.9746 19.5747 88.3848 19.8872 88.4434 20.2583C88.502 20.7856 88.6973 21.1958 89.0488 21.4692C89.4981 21.8403 90.2207 22.1333 91.2168 22.3091C92.5449 22.5435 94.6152 22.6606 97.4473 22.6606H97.6035C100.318 22.6606 102.35 22.5435 103.658 22.3091C105.67 21.938 106.627 21.1763 106.529 20.063C106.471 19.4185 106.08 19.0083 105.318 18.7935C104.596 18.5591 104.205 18.481 103.287 18.4224L97.4863 18.1489C95.3184 18.0903 93.5215 18.0317 92.0567 17.9536C90.6113 17.856 89.1465 17.7192 87.6621 17.5044C86.1973 17.2896 84.9668 17.0161 83.9707 16.645C81.9981 15.9224 80.2793 14.7114 79.2051 13.0708C78.6387 12.1528 78.3652 11.02 78.3652 9.65283C78.3652 8.26611 78.6387 7.07471 79.166 6.05908C79.9277 4.59424 81.2363 3.42236 83.0527 2.54346C85.8457 1.1958 90.6309 0.512207 97.4082 0.512207H97.6035C104.4 0.512207 109.186 1.1958 111.979 2.54346C113.795 3.42236 115.084 4.59424 115.846 6.05908C116.295 6.87939 116.568 7.79736 116.646 8.83252C116.646 8.93018 116.744 9.45752 116.373 9.77002C116.197 9.90674 115.982 9.98486 115.729 9.98486ZM153.006 2.05518V7.05518C153.006 7.46533 152.557 7.81689 152.088 7.81689H140.486C140.154 7.81689 139.998 7.93408 139.998 8.18799V27.5825C139.998 27.9927 139.607 28.3442 139.119 28.3442H131.209C130.682 28.3442 130.271 27.9927 130.271 27.5825V8.18799C130.271 7.95361 130.135 7.83643 129.842 7.81689H118.24C117.713 7.81689 117.322 7.50439 117.322 7.05518V2.05518C117.322 1.68408 117.713 1.35205 118.24 1.35205H152.088C152.557 1.35205 153.006 1.68408 153.006 2.05518ZM164.229 27.5825C164.229 27.9927 163.877 28.3442 163.467 28.3442H155.264C154.854 28.3442 154.502 27.9927 154.502 27.5825V2.05518C154.502 1.68408 154.854 1.35205 155.264 1.35205H163.467C163.877 1.35205 164.229 1.68408 164.229 2.05518V27.5825ZM202.307 1.35205C202.717 1.35205 202.99 1.5083 203.146 1.8208C203.303 2.11377 203.225 2.38721 202.893 2.62158L189.611 12.9927C189.436 13.1685 189.436 13.3442 189.611 13.5005L203.459 27.1138C203.693 27.3481 203.732 27.6216 203.576 27.9146C203.42 28.2075 203.146 28.3442 202.775 28.3442H192.385C192.092 28.3442 191.857 28.2466 191.701 28.0708L182.541 19.106C182.326 18.8911 182.111 18.8911 181.857 19.0669L178.225 21.8989C178.146 21.9771 178.107 22.0747 178.107 22.1919V27.5825C178.107 27.9927 177.697 28.3442 177.229 28.3442H173.225H169.26C168.791 28.3442 168.381 27.9927 168.381 27.5825L168.342 2.05518C168.342 1.68408 168.752 1.35205 169.221 1.35205H173.225H177.189C177.658 1.35205 178.068 1.68408 178.068 2.05518V10.063C178.068 10.3755 178.537 10.5708 178.83 10.3364L190.1 1.54736C190.256 1.41064 190.451 1.35205 190.705 1.35205H202.307Z" fill="black" fill-opacity="0.3"/>
</svg>
