<svg width="14" height="14" viewBox="0 0 14 14" fill="none" xmlns="http://www.w3.org/2000/svg">
<rect x="0.275391" y="0.0717773" width="13.29" height="13.29" rx="3" fill="#37AEE2"/>
<path d="M5.7367 9.66204C5.50828 9.66204 5.52905 9.58244 5.46675 9.38343L4.80225 7.29389L9.88984 4.42822" fill="#C8DAEA"/>
<path d="M5.73682 9.662C5.88218 9.662 5.96524 9.5824 6.06907 9.50279L7.00352 8.64707L5.84064 7.97046" fill="#A9C9DD"/>
<path d="M5.84071 7.97055L8.64408 9.94069C8.9348 10.1198 9.18399 10.0203 9.26705 9.66209L10.4092 4.52777C10.513 4.08996 10.2223 3.89096 9.91079 4.03026L3.245 6.49791C2.80892 6.65712 2.80892 6.91582 3.16194 7.01533L4.88549 7.53274L8.83097 5.12478C9.01786 5.02528 9.18399 5.06508 9.05939 5.20439" fill="#F6FBFE"/>
</svg>
