<svg width="204" height="29" viewBox="0 0 204 29" fill="none" xmlns="http://www.w3.org/2000/svg">
<path d="M33.3223 7.08203C34.5918 9.52344 34.5918 12.3945 33.3223 14.8359C32.1504 17.2383 29.8457 19.1523 26.9551 20.168C25.4902 20.6758 23.9473 20.9297 22.3262 20.9297H9.96291V27.2383C9.96291 27.6484 9.55275 28 9.084 28H1.15431C0.626968 28 0.236343 27.6484 0.236343 27.2383V1.71094C0.236343 1.33984 0.626968 1.00781 1.15431 1.00781H22.3262C23.9473 1.00781 25.4902 1.26172 26.9551 1.76953C29.8457 2.78516 32.1504 4.67969 33.3223 7.08203ZM20.2754 14.4453C21.4277 14.4453 22.4043 14.1133 23.2246 13.4492C24.0645 12.7656 24.4942 11.9648 24.5137 11.0469C24.5332 10.0508 24.1426 9.21094 23.3223 8.52734C22.502 7.82422 21.5059 7.47266 20.3535 7.47266H10.4121C10.1192 7.47266 9.96291 7.58984 9.96291 7.84375V14.0742C9.96291 14.3086 10.1192 14.4258 10.4121 14.4453H20.2754ZM75.5215 21.125C74.0957 24.2695 71.3027 26.3789 67.6895 27.4141C65.8731 27.9414 64.0371 28.293 62.1817 28.4883C60.3262 28.7031 58.2754 28.7812 56.0098 28.7617C51.5371 28.8203 47.9434 28.4297 44.3301 27.3555C40.7168 26.2812 37.9434 24.1133 36.459 21.0469C35.5801 19.2891 35.1309 17.1211 35.1309 14.5234C35.1309 11.9258 35.5801 9.75781 36.459 8C37.9434 4.89453 40.7168 2.74609 44.3301 1.67188C46.1465 1.14453 47.9629 0.773438 49.8184 0.558594C51.6738 0.34375 53.7442 0.265625 56.0098 0.285156C58.2559 0.265625 60.3067 0.34375 62.1621 0.558594C64.0371 0.773438 65.8731 1.14453 67.6699 1.67188C71.2637 2.74609 74.0957 4.89453 75.5215 8C76.4395 9.77734 76.8887 11.9844 76.8692 14.6016C76.8496 17.2188 76.4004 19.3867 75.5215 21.125ZM66.127 10.9297C65.5215 9.60156 64.4277 8.56641 62.8652 7.82422C61.3027 7.08203 59.0176 6.71094 56.0098 6.71094C50.541 6.71094 47.1621 8.11719 45.8926 10.9297C45.4629 11.75 45.2481 12.9414 45.2481 14.5234C45.2481 16.1055 45.4629 17.2969 45.8926 18.1172C47.1621 20.9102 50.541 22.3164 56.0098 22.3164C59.0176 22.3164 61.3027 21.9648 62.8848 21.2617C64.4668 20.5586 65.541 19.543 66.127 18.2344C66.5567 17.4141 66.7715 16.2031 66.7715 14.6211C66.7715 13.0195 66.5567 11.7891 66.127 10.9297ZM115.729 9.64062H107.486C107.018 9.64062 106.627 9.32812 106.568 8.95703C106.549 8.44922 106.334 8.05859 105.963 7.76562C105.514 7.39453 104.771 7.10156 103.775 6.92578C102.447 6.69141 100.377 6.57422 97.5645 6.55469H97.1348C94.3613 6.57422 92.3106 6.71094 91.002 6.96484C89.4199 7.33594 88.2285 8 88.4434 9.23047C88.541 9.83594 88.9707 10.2461 89.752 10.4219C90.1426 10.5195 90.4551 10.5781 90.6895 10.6172L91.7246 10.7539L97.4863 11.0469C99.6543 11.0664 101.451 11.125 102.896 11.2227C104.361 11.3203 105.826 11.4766 107.311 11.6914C108.795 11.9062 110.025 12.1797 111.002 12.5508C112.975 13.2539 114.693 14.4062 115.768 16.125C116.334 17.043 116.607 18.1758 116.607 19.5234C116.607 20.8711 116.334 22.082 115.807 23.1172C115.045 24.582 113.756 25.7539 111.939 26.6328C109.068 28.0195 104.283 28.7031 97.6035 28.7227H97.4082C90.6113 28.7227 85.8262 28.0586 83.0527 26.7109C81.2363 25.832 79.9473 24.6406 79.166 23.1562C78.7559 22.4141 78.502 21.5938 78.4043 20.6758C78.4043 20.5781 78.3848 20.3438 78.3652 19.9922C78.3652 19.582 78.7559 19.2305 79.2832 19.2305H87.5645C87.9746 19.2305 88.3848 19.543 88.4434 19.9141C88.502 20.4414 88.6973 20.8516 89.0488 21.125C89.4981 21.4961 90.2207 21.7891 91.2168 21.9648C92.5449 22.1992 94.6152 22.3164 97.4473 22.3164H97.6035C100.318 22.3164 102.35 22.1992 103.658 21.9648C105.67 21.5938 106.627 20.832 106.529 19.7188C106.471 19.0742 106.08 18.6641 105.318 18.4492C104.596 18.2148 104.205 18.1367 103.287 18.0781L97.4863 17.8047C95.3184 17.7461 93.5215 17.6875 92.0567 17.6094C90.6113 17.5117 89.1465 17.375 87.6621 17.1602C86.1973 16.9453 84.9668 16.6719 83.9707 16.3008C81.9981 15.5781 80.2793 14.3672 79.2051 12.7266C78.6387 11.8086 78.3652 10.6758 78.3652 9.30859C78.3652 7.92188 78.6387 6.73047 79.166 5.71484C79.9277 4.25 81.2363 3.07812 83.0527 2.19922C85.8457 0.851562 90.6309 0.167969 97.4082 0.167969H97.6035C104.4 0.167969 109.186 0.851562 111.979 2.19922C113.795 3.07812 115.084 4.25 115.846 5.71484C116.295 6.53516 116.568 7.45312 116.646 8.48828C116.646 8.58594 116.744 9.11328 116.373 9.42578C116.197 9.5625 115.982 9.64062 115.729 9.64062ZM153.006 1.71094V6.71094C153.006 7.12109 152.557 7.47266 152.088 7.47266H140.486C140.154 7.47266 139.998 7.58984 139.998 7.84375V27.2383C139.998 27.6484 139.607 28 139.119 28H131.209C130.682 28 130.271 27.6484 130.271 27.2383V7.84375C130.271 7.60938 130.135 7.49219 129.842 7.47266H118.24C117.713 7.47266 117.322 7.16016 117.322 6.71094V1.71094C117.322 1.33984 117.713 1.00781 118.24 1.00781H152.088C152.557 1.00781 153.006 1.33984 153.006 1.71094ZM164.229 27.2383C164.229 27.6484 163.877 28 163.467 28H155.264C154.854 28 154.502 27.6484 154.502 27.2383V1.71094C154.502 1.33984 154.854 1.00781 155.264 1.00781H163.467C163.877 1.00781 164.229 1.33984 164.229 1.71094V27.2383ZM202.307 1.00781C202.717 1.00781 202.99 1.16406 203.146 1.47656C203.303 1.76953 203.225 2.04297 202.893 2.27734L189.611 12.6484C189.436 12.8242 189.436 13 189.611 13.1562L203.459 26.7695C203.693 27.0039 203.732 27.2773 203.576 27.5703C203.42 27.8633 203.146 28 202.775 28H192.385C192.092 28 191.857 27.9023 191.701 27.7266L182.541 18.7617C182.326 18.5469 182.111 18.5469 181.857 18.7227L178.225 21.5547C178.146 21.6328 178.107 21.7305 178.107 21.8477V27.2383C178.107 27.6484 177.697 28 177.229 28H173.225H169.26C168.791 28 168.381 27.6484 168.381 27.2383L168.342 1.71094C168.342 1.33984 168.752 1.00781 169.221 1.00781H173.225H177.189C177.658 1.00781 178.068 1.33984 178.068 1.71094V9.71875C178.068 10.0312 178.537 10.2266 178.83 9.99219L190.1 1.20312C190.256 1.06641 190.451 1.00781 190.705 1.00781H202.307Z" fill="black"/>
</svg>
